<svg width="18" height="18" viewBox="0 0 18 18" fill="none" xmlns="http://www.w3.org/2000/svg">
<path d="M1.50896 6.04928C2.05818 6.04928 2.34995 5.74893 2.34995 5.19971V3.26028C2.34995 2.42788 2.78761 2.01596 3.58569 2.01596H5.56802C6.11724 2.01596 6.41759 1.71561 6.41759 1.17497C6.41759 0.634338 6.11724 0.333984 5.56802 0.333984H3.48271C1.6291 0.333984 0.667969 1.28653 0.667969 3.1144V5.19971C0.667969 5.74893 0.968322 6.04928 1.50896 6.04928ZM16.827 6.04928C17.3762 6.04928 17.668 5.74893 17.668 5.19971V3.1144C17.668 1.28653 16.7068 0.333984 14.8532 0.333984H12.7679C12.2187 0.333984 11.9183 0.634338 11.9183 1.17497C11.9183 1.71561 12.2187 2.01596 12.7679 2.01596H14.7503C15.5398 2.01596 15.986 2.42788 15.986 3.26028V5.19971C15.986 5.74893 16.2863 6.04928 16.827 6.04928ZM6.88099 13.9786H11.8325C12.9052 13.9786 13.4716 13.4036 13.4716 12.3224V8.13459C13.4716 7.45665 13.3686 7.14771 12.9739 6.74438L10.4423 4.16134C10.0733 3.78376 9.72148 3.65503 9.11219 3.65503H6.88099C5.81688 3.65503 5.2505 4.23858 5.2505 5.31985V12.3224C5.2505 13.4036 5.81688 13.9786 6.88099 13.9786ZM6.91532 12.8287C6.55489 12.8287 6.39185 12.6571 6.39185 12.3138V5.32843C6.39185 4.98517 6.55489 4.80496 6.9239 4.80496H8.81184V7.2936C8.81184 7.98012 9.198 8.35771 9.88453 8.35771H12.3303V12.3138C12.3303 12.6571 12.1586 12.8287 11.7896 12.8287H6.91532ZM10.0476 7.26786C9.95318 7.26786 9.91027 7.23353 9.91027 7.13055V5.22545L11.9183 7.26786H10.0476ZM3.48271 17.334H5.56802C6.11724 17.334 6.41759 17.0336 6.41759 16.493C6.41759 15.9524 6.11724 15.652 5.56802 15.652H3.58569C2.78761 15.652 2.34995 15.2401 2.34995 14.3991V12.4597C2.34995 11.9105 2.04959 11.6101 1.50896 11.6101C0.959741 11.6101 0.667969 11.9105 0.667969 12.4597V14.545C0.667969 16.3814 1.6291 17.334 3.48271 17.334ZM12.7679 17.334H14.8532C16.7068 17.334 17.668 16.3814 17.668 14.545V12.4597C17.668 11.9105 17.3676 11.6101 16.827 11.6101C16.2778 11.6101 15.986 11.919 15.986 12.4597V14.3991C15.986 15.2401 15.5398 15.652 14.7503 15.652H12.7679C12.2187 15.652 11.9183 15.9524 11.9183 16.493C11.9183 17.0336 12.2187 17.334 12.7679 17.334Z" fill="#DAF5FE"/>
</svg>
